<?xml version="1.0" encoding="utf-8"?>
<!-- Generator: Adobe Illustrator 23.0.1, SVG Export Plug-In . SVG Version: 6.00 Build 0)  -->
<svg version="1.1" id="Layer_1" xmlns="http://www.w3.org/2000/svg" xmlns:xlink="http://www.w3.org/1999/xlink" x="0px" y="0px"
	 viewBox="0 0 300 300" style="enable-background:new 0 0 300 300;" xml:space="preserve">
<style type="text/css">
	.hst0{fill-rule:evenodd;clip-rule:evenodd;fill:#C0392B;}
	.hst1{fill:#FFFFFF;}
</style>
<g>
	<circle class="hst0" cx="150" cy="150" r="150"/>
	<path class="st1" d="M48.8,110c2.5,0,4.6,0.8,6.2,2.5c1.6,1.6,2.5,3.7,2.5,6.2s-0.8,4.6-2.5,6.2c-1.6,1.7-3.7,2.5-6.2,2.5
		c-2.5,0-4.6-0.8-6.3-2.5c-1.7-1.7-2.5-3.8-2.5-6.2s0.8-4.5,2.5-6.2C44.2,110.8,46.3,110,48.8,110z M41.1,132.9h15.2v56.6H41.1
		L41.1,132.9L41.1,132.9z M68.3,112.2h52.1v14.3H85v17.3h28.8v13.6H85v17.9h36.7v14.3H68.3V112.2z M127.1,112.2h61v14.3h-22.2v63.1
		h-16.5v-63.1h-22.2L127.1,112.2L127.1,112.2z M196.8,112.2h16.4v31h30.4v-31H260v77.3h-16.4v-31.9h-30.4v31.9h-16.4L196.8,112.2
		L196.8,112.2z"/>
</g>
</svg>
