<?xml version="1.0" encoding="utf-8"?>
<!-- Generator: Adobe Illustrator 19.0.0, SVG Export Plug-In . SVG Version: 6.00 Build 0)  -->
<svg version="1.1" id="Layer_1" xmlns="http://www.w3.org/2000/svg" xmlns:xlink="http://www.w3.org/1999/xlink" x="0px" y="0px"
	 viewBox="-412 249 134 64" style="enable-background:new -412 249 134 64;" xml:space="preserve">
<style type="text/css">
	.BNB_svg{fill:url(#SVGID_1_);}
	.white_svg{fill:#FFFFFF;}
	.oBNB_svg{fill:url(#Circle_1_);}
</style>
<g id="BNB">
	<linearGradient id="SVGID_1_" gradientUnits="userSpaceOnUse" x1="-390.1347" y1="268.4986" x2="-364.8556" y2="293.7777">
		<stop  offset="0" style="stop-color:#F3BA2F"/>
		<stop  offset="1" style="stop-color:#FF9D00"/>
	</linearGradient>
	<circle class="BNB_svg" cx="-377.5" cy="281.1" r="17.9"/>
	<path class="white_svg" d="M-381.8,279.4l4.3-4.3l4.3,4.3l2.5-2.5l-6.9-6.9l-6.9,6.9L-381.8,279.4z M-388.7,281.1l2.5-2.5l2.5,2.5
		l-2.5,2.5L-388.7,281.1z M-381.8,282.9l4.3,4.3l4.3-4.3l2.5,2.5l-6.9,6.9l-6.9-6.9l0,0L-381.8,282.9z M-371.4,281.1l2.5-2.5
		l2.5,2.5l-2.5,2.5L-371.4,281.1z M-375,281.1L-375,281.1L-375,281.1l-2.5,2.5l-2.5-2.5l0,0l0,0l0.4-0.4l0.2-0.2l1.9-1.9L-375,281.1
		L-375,281.1z"/>
</g>
<g id="Swap">
	<path class="white_svg" d="M-349.4,283.6c-0.1,0-0.1,0-0.2-0.1l-4.9-4c-0.1-0.1-0.1-0.1-0.1-0.2c0-0.1,0-0.2,0.1-0.2l4.9-4
		c0.1-0.1,0.2-0.1,0.3,0c0.1,0.1,0.2,0.2,0.2,0.3v1.8h6.8c0.2,0,0.3,0.1,0.3,0.3s-0.1,0.3-0.3,0.3h-7.1c-0.2,0-0.3-0.1-0.3-0.3V276
		l-4.1,3.3l4.1,3.3v-1.5c0-0.2,0.1-0.3,0.3-0.3h7.1c0.2,0,0.3,0.1,0.3,0.3s-0.1,0.3-0.3,0.3h-6.8v1.8c0,0.1-0.1,0.2-0.2,0.3
		C-349.4,283.6-349.4,283.6-349.4,283.6z"/>
	<path class="white_svg" d="M-342.2,287.2c0,0-0.1,0-0.1,0c-0.1-0.1-0.2-0.2-0.2-0.3v-1.8l-6.8,0c-0.2,0-0.3-0.1-0.3-0.3s0.1-0.3,0.3-0.3
		l7.1,0c0.1,0,0.2,0,0.2,0.1c0.1,0.1,0.1,0.1,0.1,0.2v1.5l4.1-3.3l-4.1-3.3v1.5c0,0.2-0.1,0.3-0.3,0.3h-7.1c-0.2,0-0.3-0.1-0.3-0.3
		s0.1-0.3,0.3-0.3h6.8V279c0-0.1,0.1-0.2,0.2-0.3c0.1-0.1,0.2,0,0.3,0l4.9,4c0.1,0.1,0.1,0.1,0.1,0.2c0,0.1,0,0.2-0.1,0.2l-4.9,4
		C-342.1,287.2-342.2,287.2-342.2,287.2z"/>
</g>
<g id="oBNB">
	<linearGradient id="Circle_1_" gradientUnits="userSpaceOnUse" x1="-325.159" y1="268.4971" x2="-299.8873" y2="293.7688">
		<stop  offset="0" style="stop-color:#45992F"/>
		<stop  offset="1" style="stop-color:#456C2F"/>
	</linearGradient>
	<circle id="Circle" class="oBNB_svg" cx="-312.5" cy="281.1" r="17.9"/>
	<g id="Logo_1_">
		<g id="XMLID_4_">
			<polygon class="white_svg" points="-309.4,275.4 -310.7,275.4 -310.7,286.9 -309.4,286.9 			"/>
		</g>
		<g id="XMLID_3_">
			<path class="white_svg" d="M-313.1,276.5v9.2h-9.2v-9.2H-313.1 M-311.9,275.4h-11.5v11.5h11.5V275.4L-311.9,275.4z"/>
		</g>
	</g>
	<g id="Text">
		<path class="white_svg" d="M-308.1,285.3c0-0.5,0.1-0.9,0.3-1.2c0.2-0.3,0.5-0.4,0.8-0.4c0.3,0,0.5,0.1,0.6,0.2c0.2,0.2,0.3,0.4,0.3,0.6
			c0-0.3,0.2-0.6,0.3-0.7c0.2-0.2,0.4-0.3,0.6-0.3c0.4,0,0.6,0.2,0.9,0.5c0.2,0.3,0.3,0.6,0.3,1.2v1.7h-4.2L-308.1,285.3
			L-308.1,285.3z M-306.3,286v-0.8c0-0.2-0.1-0.4-0.2-0.4c-0.1-0.1-0.2-0.2-0.4-0.2c-0.2,0-0.3,0.1-0.4,0.2
			c-0.1,0.1-0.2,0.3-0.2,0.4v0.7L-306.3,286L-306.3,286z M-304.6,286v-0.8c0-0.2-0.1-0.4-0.2-0.5c-0.1-0.2-0.2-0.2-0.4-0.2
			c-0.2,0-0.3,0.1-0.4,0.2c-0.1,0.1-0.2,0.3-0.2,0.5v0.8H-304.6L-304.6,286z M-303.8,283h-4.2v-0.8l2.7-1.8h-2.7v-0.9h4.2v0.8
			l-2.7,1.8h2.7V283z M-308.1,277.1c0-0.5,0.1-0.9,0.3-1.2c0.2-0.3,0.5-0.4,0.8-0.4c0.3,0,0.5,0.1,0.6,0.2c0.2,0.2,0.3,0.4,0.3,0.6
			c0-0.3,0.2-0.6,0.3-0.7s0.4-0.3,0.6-0.3c0.4,0,0.6,0.2,0.9,0.4c0.2,0.3,0.3,0.6,0.3,1.2v1.7h-4.2L-308.1,277.1L-308.1,277.1z
			 M-306.3,277.8v-0.7c0-0.2-0.1-0.4-0.2-0.5c-0.1-0.1-0.2-0.2-0.4-0.2c-0.2,0-0.3,0.1-0.4,0.2c-0.1,0.1-0.2,0.3-0.2,0.5v0.7H-306.3
			z M-304.6,277.8V277c0-0.2-0.1-0.4-0.2-0.5c-0.1-0.2-0.2-0.2-0.4-0.2c-0.2,0-0.3,0.1-0.4,0.2c-0.1,0.1-0.2,0.3-0.2,0.5v0.8H-304.6
			L-304.6,277.8z"/>
	</g>
</g>
</svg>
