<?xml version="1.0" encoding="utf-8"?>
<!-- Generator: Adobe Illustrator 23.0.1, SVG Export Plug-In . SVG Version: 6.00 Build 0)  -->
<svg version="1.1" xmlns="http://www.w3.org/2000/svg" xmlns:xlink="http://www.w3.org/1999/xlink" x="0px" y="0px"
	 viewBox="0 0 127 71" style="enable-background:new 0 0 127 71;" xml:space="preserve" width="134" height="64">
<style type="text/css">
	.cst0{fill:#484697;}
	.cst1{fill:#F3BA2F;}
	.cst2{fill:#FFFFFF;}
	.cst3{fill:#45992F;}
</style>
<g id="Arrows">
	<path class="cst0" d="M76.8,63.7l0.2,0.5l0,0L76.8,63.7z M81.5,61.1c0.3,0.1,0.4,0.4,0.3,0.6L80.3,66c-0.1,0.3-0.4,0.4-0.6,0.3
		c-0.3-0.1-0.4-0.4-0.3-0.6l1.3-3.8l-3.8-1.3c-0.3-0.1-0.4-0.4-0.3-0.6c0.1-0.3,0.4-0.4,0.6-0.3L81.5,61.1z M76.6,63.3l4.5-2.1
		l0.4,0.9l-4.5,2.1L76.6,63.3z M48.6,61.5c8.4,5.4,19,6.1,28,1.8l0.4,0.9c-9.3,4.4-20.3,3.7-29-1.9L48.6,61.5z"/>
	<path class="st0" d="M51.1,9.2l-0.2-0.4l0,0L51.1,9.2z M46.5,12.1c-0.3-0.1-0.4-0.4-0.3-0.6l1.3-4.3c0.1-0.3,0.4-0.4,0.6-0.3
		c0.3,0.1,0.4,0.4,0.3,0.6l-1.1,3.8l3.8,1.1c0.3,0.1,0.4,0.4,0.3,0.6c-0.1,0.3-0.4,0.4-0.6,0.3L46.5,12.1z M51.3,9.6L46.9,12
		l-0.5-0.9l4.4-2.4L51.3,9.6z M79.4,9.8c-8.7-4.9-19.3-5-28.1-0.2l-0.5-0.9c9.1-5,20-4.9,29,0.2L79.4,9.8z"/>
</g>
<g id="BNB">
	<circle class="cst1" cx="24" cy="38" r="24"/>
	<path class="st2" d="M18.2,35.6l5.8-5.8l5.8,5.8l3.4-3.4L24,23l-9.2,9.2L18.2,35.6z M9,38l3.4-3.4l3.4,3.4l-3.4,3.4L9,38z
		 M18.2,40.4l5.8,5.8l5.8-5.8l3.4,3.4L24,53l-9.2-9.2l0,0L18.2,40.4z M32.2,38l3.4-3.4L39,38l-3.4,3.4L32.2,38z M27.4,38L27.4,38
		L27.4,38L24,41.4L20.6,38l0,0l0,0l0.6-0.6l0.3-0.3l2.5-2.5L27.4,38L27.4,38z"/>
</g>
<g id="oUSD">
	<g>
		<circle class="cst3" cx="103" cy="33" r="23.9"/>
	</g>
	<g id="Logo_1_">
		<g id="XMLID_4_">
			<polygon class="cst2" points="107.1,25.3 105.5,25.3 105.5,40.8 107.1,40.8 			"/>
		</g>
		<g id="XMLID_3_">
			<path class="cst2" d="M102.3,26.9v12.3H90V26.9L102.3,26.9 M103.9,25.3H88.4v15.5h15.5V25.3L103.9,25.3z"/>
		</g>
	</g>
	<g id="Text">
		<path class="cst2" d="M108.9,38.6c0-0.7,0.1-1.2,0.4-1.5c0.3-0.4,0.6-0.5,1.1-0.5c0.4,0,0.6,0.1,0.9,0.3s0.4,0.5,0.4,0.8
			c0-0.4,0.2-0.7,0.4-1c0.2-0.2,0.5-0.4,0.9-0.4c0.5,0,0.9,0.2,1.2,0.6c0.3,0.4,0.4,0.9,0.4,1.6v2.3h-5.7L108.9,38.6L108.9,38.6z
			 M111.2,39.5v-1c0-0.3-0.1-0.5-0.2-0.6c-0.1-0.1-0.3-0.2-0.5-0.2c-0.2,0-0.4,0.1-0.5,0.2c-0.1,0.1-0.2,0.4-0.2,0.6v1H111.2z
			 M113.6,39.5v-1.1c0-0.3-0.1-0.5-0.2-0.7c-0.1-0.2-0.3-0.2-0.5-0.2c-0.2,0-0.4,0.1-0.5,0.2c-0.1,0.2-0.2,0.4-0.2,0.7v1.1H113.6
			L113.6,39.5z M114.6,35.5h-5.7v-1.1l3.6-2.4h-3.6v-1.2h5.7v1.1l-3.6,2.4h3.6V35.5z M108.9,27.6c0-0.7,0.1-1.2,0.4-1.5
			c0.3-0.4,0.6-0.5,1.1-0.5c0.4,0,0.6,0.1,0.9,0.3c0.2,0.2,0.4,0.5,0.4,0.8c0-0.4,0.2-0.7,0.4-1c0.2-0.2,0.5-0.4,0.9-0.4
			c0.5,0,0.9,0.2,1.2,0.6c0.3,0.4,0.4,0.9,0.4,1.6v2.3h-5.7L108.9,27.6L108.9,27.6z M111.2,28.6v-1c0-0.3-0.1-0.5-0.2-0.6
			c-0.1-0.1-0.3-0.2-0.5-0.2c-0.2,0-0.4,0.1-0.5,0.2c-0.1,0.1-0.2,0.4-0.2,0.6v1H111.2z M113.6,28.6v-1.1c0-0.3-0.1-0.5-0.2-0.7
			c-0.1-0.2-0.3-0.2-0.5-0.2c-0.2,0-0.4,0.1-0.5,0.2c-0.1,0.2-0.2,0.4-0.2,0.7v1.1H113.6L113.6,28.6z"/>
	</g>
</g>
</svg>
