<?xml version="1.0" encoding="utf-8"?>
<!-- Generator: Adobe Illustrator 19.0.0, SVG Export Plug-In . SVG Version: 6.00 Build 0)  -->
<svg version="1.1" id="Layer_1" xmlns="http://www.w3.org/2000/svg" xmlns:xlink="http://www.w3.org/1999/xlink" x="0px" y="0px"
	 viewBox="-412 249 134 64" style="enable-background:new -412 249 134 64;" xml:space="preserve">
<style type="text/css">
	.BNB_svg{fill:url(#SVGID_1_);}
	.white_svg{fill:#FFFFFF;}
	.oUSD_svg{fill:url(#SVGID_2_);}
</style>
<g id="BNB">
	<linearGradient id="SVGID_1_" gradientUnits="userSpaceOnUse" x1="-390.1347" y1="268.4986" x2="-364.8556" y2="293.7777">
		<stop  offset="0" style="stop-color:#F3BA2F"/>
		<stop  offset="1" style="stop-color:#FF9D00"/>
	</linearGradient>
	<circle class="BNB_svg" cx="-377.5" cy="281.1" r="17.9"/>
	<path class="white_svg" d="M-381.8,279.4l4.3-4.3l4.3,4.3l2.5-2.5l-6.9-6.9l-6.9,6.9L-381.8,279.4z M-388.7,281.1l2.5-2.5l2.5,2.5
		l-2.5,2.5L-388.7,281.1z M-381.8,282.9l4.3,4.3l4.3-4.3l2.5,2.5l-6.9,6.9l-6.9-6.9l0,0L-381.8,282.9z M-371.4,281.1l2.5-2.5
		l2.5,2.5l-2.5,2.5L-371.4,281.1z M-375,281.1L-375,281.1L-375,281.1l-2.5,2.5l-2.5-2.5l0,0l0,0l0.4-0.4l0.2-0.2l1.9-1.9L-375,281.1
		L-375,281.1z"/>
</g>
<g id="oUSD">
	<g id="Main">
		<g>
			<linearGradient id="SVGID_2_" gradientUnits="userSpaceOnUse" x1="-325.1444" y1="268.4986" x2="-299.8653" y2="293.7777">
				<stop  offset="0" style="stop-color:#3D2096"/>
				<stop  offset="1" style="stop-color:#3E2163"/>
			</linearGradient>
			<circle class="oUSD_svg" cx="-312.5" cy="281.1" r="17.9"/>
		</g>
		<g id="Logo">
			<g id="XMLID_1_">
				<polygon class="white_svg" points="-309.5,275.3 -310.6,275.3 -310.6,286.9 -309.5,286.9 				"/>
			</g>
			<g id="XMLID_2_">
				<path class="white_svg" d="M-313.1,276.5v9.2h-9.2v-9.2H-313.1 M-311.9,275.3h-11.5v11.5h11.5V275.3L-311.9,275.3z"/>
			</g>
		</g>
	</g>
	<g id="Currency">
		<g id="USD_1_">
			<g transform="rotate(-90 189.035 14.062)">
				<g>
					<path id="a" d="M-82.9-483.1v2.5c0,0.4,0.1,0.6,0.2,0.7s0.4,0.3,0.6,0.3c0.2,0,0.5-0.1,0.6-0.3c0.1-0.1,0.2-0.4,0.2-0.7v-2.5
						h0.9v2.4c0,0.6-0.1,1-0.4,1.4c-0.3,0.3-0.7,0.4-1.3,0.4c-0.6,0-1-0.1-1.3-0.4c-0.3-0.3-0.4-0.8-0.4-1.4v-2.4
						C-83.8-483.1-82.9-483.1-82.9-483.1z M-78.9-480.2c0,0.2,0.1,0.4,0.3,0.5c0.1,0.1,0.4,0.2,0.6,0.2c0.2,0,0.4-0.1,0.5-0.1
						c0.1-0.1,0.2-0.2,0.2-0.4c0-0.1,0-0.2-0.1-0.3c-0.1-0.1-0.1-0.1-0.3-0.1s-0.4-0.1-0.6-0.1c-0.3-0.1-0.5-0.1-0.7-0.2
						c-0.1-0.1-0.4-0.2-0.4-0.4c-0.1-0.1-0.1-0.4-0.1-0.7c0-0.2,0.1-0.4,0.2-0.7c0.1-0.2,0.3-0.4,0.6-0.4c0.2-0.1,0.5-0.1,0.8-0.1
						c0.3,0,0.6,0.1,0.8,0.1c0.2,0.1,0.4,0.3,0.6,0.4c0.1,0.2,0.2,0.4,0.2,0.7h-1.1c0-0.1-0.1-0.3-0.2-0.4c-0.1-0.1-0.3-0.1-0.5-0.1
						c-0.2,0-0.4,0.1-0.5,0.1c-0.1,0.1-0.1,0.2-0.1,0.4c0,0.1,0,0.2,0.1,0.3c0.1,0.1,0.1,0.1,0.3,0.1c0.1,0,0.3,0.1,0.6,0.1
						c0.3,0.1,0.5,0.1,0.7,0.2c0.2,0.1,0.4,0.2,0.4,0.4c0.1,0.1,0.1,0.4,0.1,0.7c0,0.3-0.1,0.5-0.2,0.7s-0.3,0.4-0.6,0.4
						c-0.2,0.1-0.5,0.1-0.8,0.1c-0.3,0-0.7-0.1-0.9-0.2c-0.3-0.1-0.4-0.3-0.6-0.5c-0.1-0.2-0.2-0.4-0.2-0.7
						C-79.8-480.2-78.9-480.2-78.9-480.2z M-75.9-483.1h1.5c0.4,0,0.8,0.1,1.1,0.3s0.6,0.4,0.7,0.7s0.3,0.7,0.3,1.1
						s-0.1,0.7-0.3,1.1c-0.1,0.3-0.4,0.6-0.7,0.7c-0.3,0.1-0.7,0.3-1.1,0.3h-1.5V-483.1z M-74.4-479.6c0.4,0,0.7-0.1,0.9-0.4
						c0.2-0.2,0.3-0.6,0.3-1c0-0.4-0.1-0.7-0.3-1c-0.2-0.2-0.5-0.4-0.9-0.4H-75v2.8L-74.4-479.6L-74.4-479.6z"/>
				</g>
				<g>
					<path id="a_1_" class="white_svg" d="M-82.9-483.1v2.5c0,0.4,0.1,0.6,0.2,0.7s0.4,0.3,0.6,0.3c0.2,0,0.5-0.1,0.6-0.3
						c0.1-0.1,0.2-0.4,0.2-0.7v-2.5h0.9v2.4c0,0.6-0.1,1-0.4,1.4c-0.3,0.3-0.7,0.4-1.3,0.4c-0.6,0-1-0.1-1.3-0.4
						c-0.3-0.3-0.4-0.8-0.4-1.4v-2.4C-83.8-483.1-82.9-483.1-82.9-483.1z M-78.9-480.2c0,0.2,0.1,0.4,0.3,0.5
						c0.1,0.1,0.4,0.2,0.6,0.2c0.2,0,0.4-0.1,0.5-0.1c0.1-0.1,0.2-0.2,0.2-0.4c0-0.1,0-0.2-0.1-0.3c-0.1-0.1-0.1-0.1-0.3-0.1
						s-0.4-0.1-0.6-0.1c-0.3-0.1-0.5-0.1-0.7-0.2c-0.1-0.1-0.4-0.2-0.4-0.4c-0.1-0.1-0.1-0.4-0.1-0.7c0-0.2,0.1-0.4,0.2-0.7
						c0.1-0.2,0.3-0.4,0.6-0.4c0.2-0.1,0.5-0.1,0.8-0.1c0.3,0,0.6,0.1,0.8,0.1c0.2,0.1,0.4,0.3,0.6,0.4c0.1,0.2,0.2,0.4,0.2,0.7
						h-1.1c0-0.1-0.1-0.3-0.2-0.4c-0.1-0.1-0.3-0.1-0.5-0.1c-0.2,0-0.4,0.1-0.5,0.1c-0.1,0.1-0.1,0.2-0.1,0.4c0,0.1,0,0.2,0.1,0.3
						c0.1,0.1,0.1,0.1,0.3,0.1c0.1,0,0.3,0.1,0.6,0.1c0.3,0.1,0.5,0.1,0.7,0.2c0.2,0.1,0.4,0.2,0.4,0.4c0.1,0.1,0.1,0.4,0.1,0.7
						c0,0.3-0.1,0.5-0.2,0.7s-0.3,0.4-0.6,0.4c-0.2,0.1-0.5,0.1-0.8,0.1c-0.3,0-0.7-0.1-0.9-0.2c-0.3-0.1-0.4-0.3-0.6-0.5
						c-0.1-0.2-0.2-0.4-0.2-0.7C-79.8-480.2-78.9-480.2-78.9-480.2z M-75.9-483.1h1.5c0.4,0,0.8,0.1,1.1,0.3s0.6,0.4,0.7,0.7
						s0.3,0.7,0.3,1.1s-0.1,0.7-0.3,1.1c-0.1,0.3-0.4,0.6-0.7,0.7c-0.3,0.1-0.7,0.3-1.1,0.3h-1.5V-483.1z M-74.4-479.6
						c0.4,0,0.7-0.1,0.9-0.4c0.2-0.2,0.3-0.6,0.3-1c0-0.4-0.1-0.7-0.3-1c-0.2-0.2-0.5-0.4-0.9-0.4H-75v2.8L-74.4-479.6L-74.4-479.6z
						"/>
				</g>
			</g>
		</g>
	</g>
</g>
<g id="Swap">
	<path class="white_svg" d="M-349.4,283.6c-0.1,0-0.1,0-0.2-0.1l-4.9-4c-0.1-0.1-0.1-0.1-0.1-0.2c0-0.1,0-0.2,0.1-0.2l4.9-4
		c0.1-0.1,0.2-0.1,0.3,0c0.1,0.1,0.2,0.2,0.2,0.3v1.8h6.8c0.2,0,0.3,0.1,0.3,0.3s-0.1,0.3-0.3,0.3h-7.1c-0.2,0-0.3-0.1-0.3-0.3V276
		l-4.1,3.3l4.1,3.3v-1.5c0-0.2,0.1-0.3,0.3-0.3h7.1c0.2,0,0.3,0.1,0.3,0.3s-0.1,0.3-0.3,0.3h-6.8v1.8c0,0.1-0.1,0.2-0.2,0.3
		C-349.4,283.6-349.4,283.6-349.4,283.6z"/>
	<path class="white_svg" d="M-342.2,287.2c0,0-0.1,0-0.1,0c-0.1-0.1-0.2-0.2-0.2-0.3v-1.8l-6.8,0c-0.2,0-0.3-0.1-0.3-0.3s0.1-0.3,0.3-0.3
		l7.1,0c0.1,0,0.2,0,0.2,0.1c0.1,0.1,0.1,0.1,0.1,0.2v1.5l4.1-3.3l-4.1-3.3v1.5c0,0.2-0.1,0.3-0.3,0.3h-7.1c-0.2,0-0.3-0.1-0.3-0.3
		s0.1-0.3,0.3-0.3h6.8V279c0-0.1,0.1-0.2,0.2-0.3c0.1-0.1,0.2,0,0.3,0l4.9,4c0.1,0.1,0.1,0.1,0.1,0.2c0,0.1,0,0.2-0.1,0.2l-4.9,4
		C-342.1,287.2-342.2,287.2-342.2,287.2z"/>
</g>
</svg>
