<?xml version="1.0" encoding="utf-8"?>
<!-- Generator: Adobe Illustrator 23.0.1, SVG Export Plug-In . SVG Version: 6.00 Build 0)  -->
<svg version="1.1" xmlns="http://www.w3.org/2000/svg" xmlns:xlink="http://www.w3.org/1999/xlink" x="0px" y="0px"
	 viewBox="0 0 130 63" style="enable-background:new 0 0 130 63;" xml:space="preserve" width="134" height="64">
<style type="text/css">
	.bst0{fill:#484697;}
	.bst1{fill:#F3BA2F;}
	.bst2{fill:#FFFFFF;}
	.bst3{fill:#3D2096;}
</style>
<g id="Arrows">
	<path class="bst0" d="M75.2,55l0.2,0.5l0,0L75.2,55z M79.9,52.6c0.3,0.1,0.4,0.4,0.3,0.7l-1.7,4.2c-0.1,0.3-0.4,0.4-0.7,0.3
		c-0.3-0.1-0.4-0.4-0.3-0.7l1.5-3.7l-3.7-1.5c-0.3-0.1-0.4-0.4-0.3-0.7c0.1-0.3,0.4-0.4,0.7-0.3L79.9,52.6z M75,54.6l4.6-2l0.4,0.9
		l-4.6,2L75,54.6z M47,51.6c8.2,5.8,18.7,6.9,27.9,3l0.4,0.9c-9.5,4.1-20.4,2.9-28.9-3.1L47,51.6z"/>
</g>
<g id="BNB">
	<circle class="bst1" cx="24" cy="24.1" r="24"/>
	<path class="st2" d="M18.2,21.7l5.8-5.8l5.8,5.8l3.4-3.4L24,9.1l-9.2,9.2L18.2,21.7z M9,24.1l3.4-3.4l3.4,3.4l-3.4,3.4L9,24.1z
		 M18.2,26.5l5.8,5.8l5.8-5.8l3.4,3.4L24,39.1l-9.2-9.2l0,0L18.2,26.5z M32.2,24.1l3.4-3.4l3.4,3.4l-3.4,3.4L32.2,24.1z M27.4,24.1
		L27.4,24.1L27.4,24.1L24,27.5l-3.4-3.4l0,0l0,0l0.6-0.6l0.3-0.3l2.5-2.5L27.4,24.1L27.4,24.1z"/>
</g>
<g id="oUSD">
	<g id="Main">
		<g>
			<circle class="bst3" cx="106" cy="27" r="24"/>
		</g>
		<g id="Logo">
			<g id="XMLID_1_">
				<polygon class="bst2" points="110.1,19.2 108.5,19.2 108.5,34.8 110.1,34.8 				"/>
			</g>
			<g id="XMLID_2_">
				<path class="bst2" d="M105.2,20.8v12.3H92.9V20.8L105.2,20.8 M106.8,19.2H91.3v15.5h15.5V19.2L106.8,19.2z"/>
			</g>
		</g>
	</g>
	<g id="Currency">
		<g id="USD_1_">
			<g transform="rotate(-90 189.035 14.062)">
				<g>
					<path id="a" d="M169.6-63.1v3.3c0,0.5,0.1,0.8,0.3,1c0.2,0.2,0.5,0.4,0.8,0.4s0.7-0.1,0.8-0.4c0.2-0.2,0.3-0.6,0.3-1v-3.3h1.2
						v3.2c0,0.8-0.2,1.4-0.6,1.9c-0.4,0.4-1,0.6-1.7,0.6c-0.8,0-1.3-0.2-1.7-0.6c-0.4-0.4-0.6-1.1-0.6-1.9v-3.2
						C168.3-63.1,169.6-63.1,169.6-63.1z M174.9-59.2c0,0.3,0.1,0.5,0.4,0.7c0.2,0.2,0.5,0.3,0.8,0.3c0.3,0,0.5-0.1,0.7-0.2
						c0.2-0.1,0.3-0.3,0.3-0.5c0-0.1,0-0.3-0.1-0.4c-0.1-0.1-0.2-0.2-0.4-0.2c-0.2,0-0.5-0.1-0.8-0.2c-0.4-0.1-0.7-0.2-0.9-0.3
						s-0.5-0.3-0.6-0.5c-0.2-0.2-0.2-0.5-0.2-0.9c0-0.3,0.1-0.6,0.3-0.9c0.2-0.3,0.4-0.5,0.8-0.6c0.3-0.1,0.7-0.2,1.1-0.2
						c0.4,0,0.8,0.1,1.1,0.2c0.3,0.2,0.6,0.4,0.8,0.6c0.2,0.3,0.3,0.6,0.3,0.9H177c0-0.2-0.1-0.4-0.3-0.6c-0.2-0.1-0.4-0.2-0.7-0.2
						c-0.3,0-0.5,0.1-0.7,0.2c-0.2,0.1-0.2,0.3-0.2,0.5c0,0.1,0,0.3,0.1,0.4c0.1,0.1,0.2,0.1,0.4,0.2c0.2,0,0.4,0.1,0.8,0.2
						s0.7,0.2,1,0.3c0.3,0.1,0.5,0.3,0.6,0.5s0.2,0.5,0.2,0.9c0,0.4-0.1,0.7-0.3,0.9s-0.4,0.5-0.8,0.6c-0.3,0.2-0.7,0.2-1.1,0.2
						c-0.4,0-0.9-0.1-1.2-0.3c-0.4-0.2-0.6-0.4-0.8-0.7c-0.2-0.3-0.3-0.6-0.3-1C173.7-59.2,174.9-59.2,174.9-59.2z M179-63.1h2
						c0.6,0,1.1,0.1,1.5,0.4s0.8,0.6,1,1c0.2,0.4,0.4,0.9,0.4,1.5c0,0.6-0.1,1-0.4,1.5c-0.2,0.4-0.6,0.8-1,1
						c-0.4,0.2-0.9,0.4-1.5,0.4h-2V-63.1z M181-58.4c0.5,0,0.9-0.2,1.2-0.5c0.3-0.3,0.4-0.8,0.4-1.3c0-0.6-0.1-1-0.4-1.3
						c-0.3-0.3-0.7-0.5-1.2-0.5h-0.8v3.7L181-58.4L181-58.4z"/>
				</g>
				<g>
					<path id="a_1_" class="bst2" d="M169.6-63.1v3.3c0,0.5,0.1,0.8,0.3,1c0.2,0.2,0.5,0.4,0.8,0.4s0.7-0.1,0.8-0.4
						c0.2-0.2,0.3-0.6,0.3-1v-3.3h1.2v3.2c0,0.8-0.2,1.4-0.6,1.9c-0.4,0.4-1,0.6-1.7,0.6c-0.8,0-1.3-0.2-1.7-0.6
						c-0.4-0.4-0.6-1.1-0.6-1.9v-3.2C168.3-63.1,169.6-63.1,169.6-63.1z M174.9-59.2c0,0.3,0.1,0.5,0.4,0.7c0.2,0.2,0.5,0.3,0.8,0.3
						c0.3,0,0.5-0.1,0.7-0.2c0.2-0.1,0.3-0.3,0.3-0.5c0-0.1,0-0.3-0.1-0.4c-0.1-0.1-0.2-0.2-0.4-0.2c-0.2,0-0.5-0.1-0.8-0.2
						c-0.4-0.1-0.7-0.2-0.9-0.3s-0.5-0.3-0.6-0.5c-0.2-0.2-0.2-0.5-0.2-0.9c0-0.3,0.1-0.6,0.3-0.9c0.2-0.3,0.4-0.5,0.8-0.6
						c0.3-0.1,0.7-0.2,1.1-0.2c0.4,0,0.8,0.1,1.1,0.2c0.3,0.2,0.6,0.4,0.8,0.6c0.2,0.3,0.3,0.6,0.3,0.9H177c0-0.2-0.1-0.4-0.3-0.6
						c-0.2-0.1-0.4-0.2-0.7-0.2c-0.3,0-0.5,0.1-0.7,0.2c-0.2,0.1-0.2,0.3-0.2,0.5c0,0.1,0,0.3,0.1,0.4c0.1,0.1,0.2,0.1,0.4,0.2
						c0.2,0,0.4,0.1,0.8,0.2s0.7,0.2,1,0.3c0.3,0.1,0.5,0.3,0.6,0.5s0.2,0.5,0.2,0.9c0,0.4-0.1,0.7-0.3,0.9s-0.4,0.5-0.8,0.6
						c-0.3,0.2-0.7,0.2-1.1,0.2c-0.4,0-0.9-0.1-1.2-0.3c-0.4-0.2-0.6-0.4-0.8-0.7c-0.2-0.3-0.3-0.6-0.3-1
						C173.7-59.2,174.9-59.2,174.9-59.2z M179-63.1h2c0.6,0,1.1,0.1,1.5,0.4s0.8,0.6,1,1c0.2,0.4,0.4,0.9,0.4,1.5
						c0,0.6-0.1,1-0.4,1.5c-0.2,0.4-0.6,0.8-1,1c-0.4,0.2-0.9,0.4-1.5,0.4h-2V-63.1z M181-58.4c0.5,0,0.9-0.2,1.2-0.5
						c0.3-0.3,0.4-0.8,0.4-1.3c0-0.6-0.1-1-0.4-1.3c-0.3-0.3-0.7-0.5-1.2-0.5h-0.8v3.7L181-58.4L181-58.4z"/>
				</g>
			</g>
		</g>
	</g>
</g>
</svg>
