<?xml version="1.0" encoding="utf-8"?>
<!-- Generator: Adobe Illustrator 23.0.1, SVG Export Plug-In . SVG Version: 6.00 Build 0)  -->
<svg version="1.1" xmlns="http://www.w3.org/2000/svg" xmlns:xlink="http://www.w3.org/1999/xlink" x="0px" y="0px"
	 viewBox="0 0 134 63" style="enable-background:new 0 0 134 63;" xml:space="preserve" width="134" height="64">
<style type="text/css">
	.st0{fill:#484697;}
	.st1{fill:#45992F;}
	.st2{fill:#FFFFFF;}
	.st3{fill:#F3BA2F;}
</style>
<g id="Arrow">
	<path class="st0" d="M75.6,7.9l0.2-0.5l0,0L75.6,7.9z M80.5,10.1c0.3-0.1,0.4-0.4,0.2-0.7l-1.9-4.1c-0.1-0.3-0.4-0.4-0.7-0.2
		C78,5.3,77.9,5.6,78,5.8l1.7,3.6L76,11.1c-0.3,0.1-0.4,0.4-0.2,0.7c0.1,0.3,0.4,0.4,0.7,0.2L80.5,10.1z M75.5,8.4l4.7,1.7l0.3-0.9
		l-4.7-1.7L75.5,8.4z M47.7,12.7c7.9-6.1,18.4-7.8,27.7-4.3l0.3-0.9c-9.7-3.6-20.6-1.9-28.7,4.4L47.7,12.7z"/>
</g>
<g id="oBNB">
	<g>
		<circle class="st1" cx="110" cy="34" r="24"/>
	</g>
	<g id="Logo_1_">
		<g id="XMLID_4_">
			<polygon class="st2" points="114.1,26.2 112.5,26.2 112.5,41.7 114.1,41.7 			"/>
		</g>
		<g id="XMLID_3_">
			<path class="st2" d="M109.2,27.8v12.3H96.9V27.8H109.2 M110.8,26.2H95.3v15.5h15.5V26.2L110.8,26.2z"/>
		</g>
	</g>
	<g id="Text">
		<path class="st2" d="M115.9,39.6c0-0.7,0.1-1.2,0.4-1.6c0.3-0.4,0.6-0.5,1.1-0.5c0.4,0,0.6,0.1,0.9,0.3c0.2,0.2,0.4,0.5,0.4,0.8
			c0-0.4,0.2-0.8,0.4-1c0.2-0.2,0.5-0.4,0.9-0.4c0.5,0,0.9,0.2,1.2,0.6c0.3,0.4,0.4,0.9,0.4,1.6v2.3h-5.7L115.9,39.6L115.9,39.6z
			 M118.2,40.5v-1c0-0.3-0.1-0.5-0.2-0.6c-0.1-0.1-0.3-0.2-0.5-0.2s-0.4,0.1-0.5,0.2c-0.1,0.1-0.2,0.4-0.2,0.6v1H118.2z M120.6,40.5
			v-1.1c0-0.3-0.1-0.5-0.2-0.7s-0.3-0.2-0.5-0.2c-0.2,0-0.4,0.1-0.5,0.2s-0.2,0.4-0.2,0.7v1.1H120.6L120.6,40.5z M121.6,36.5h-5.7
			v-1.1l3.6-2.4h-3.6v-1.2h5.7v1.1l-3.6,2.4h3.6V36.5z M115.9,28.5c0-0.7,0.1-1.2,0.4-1.6c0.3-0.4,0.6-0.5,1.1-0.5
			c0.4,0,0.6,0.1,0.9,0.3s0.4,0.5,0.4,0.8c0-0.4,0.2-0.8,0.4-1s0.5-0.4,0.9-0.4c0.5,0,0.9,0.2,1.2,0.6c0.3,0.4,0.4,0.9,0.4,1.6v2.3
			h-5.7L115.9,28.5L115.9,28.5z M118.2,29.5v-1c0-0.3-0.1-0.5-0.2-0.6c-0.1-0.1-0.3-0.2-0.5-0.2s-0.4,0.1-0.5,0.2
			c-0.1,0.1-0.2,0.4-0.2,0.6v1H118.2z M120.6,29.5v-1.1c0-0.3-0.1-0.5-0.2-0.7s-0.3-0.2-0.5-0.2c-0.2,0-0.4,0.1-0.5,0.2
			s-0.2,0.4-0.2,0.7v1.1H120.6L120.6,29.5z"/>
	</g>
</g>
<g id="BNB">
	<circle class="st3" cx="24" cy="39" r="24"/>
	<path class="st2" d="M18.2,36.6l5.8-5.8l5.8,5.8l3.4-3.4L24,24l-9.2,9.2L18.2,36.6z M9,39l3.4-3.4l3.4,3.4l-3.4,3.4L9,39z
		 M18.2,41.4l5.8,5.8l5.8-5.8l3.4,3.4L24,54l-9.2-9.2l0,0L18.2,41.4z M32.2,39l3.4-3.4L39,39l-3.4,3.4L32.2,39z M27.4,39L27.4,39
		L27.4,39L24,42.4L20.6,39l0,0l0,0l0.6-0.6l0.3-0.3l2.5-2.5L27.4,39L27.4,39z"/>
</g>
</svg>
