<?xml version="1.0" encoding="utf-8"?>
<!-- Generator: Adobe Illustrator 23.0.1, SVG Export Plug-In . SVG Version: 6.00 Build 0)  -->
<svg version="1.1" id="Layer_1" xmlns="http://www.w3.org/2000/svg" xmlns:xlink="http://www.w3.org/1999/xlink" x="0px" y="0px"
	 viewBox="0 0 275 47" style="enable-background:new 0 0 275 47;" xml:space="preserve" width="275" height="47">
<style type="text/css">
	.st0{fill:#262439;}
	.st1{fill:#FFFFFF;}
	.st2{font-family:'Montserrat-Bold';}
	.st3{font-size:12px;}
</style>
<path class="st0" d="M263,47H12C5.4,47,0,41.6,0,35V12C0,5.4,5.4,0,12,0h251c6.6,0,12,5.4,12,12v23C275,41.6,269.6,47,263,47z"/>
<text transform="matrix(1 0 0 1 14.4897 27.6787)" class="st1 st2 st3">AUDIT BY CYBERCRIME SHIELD</text>
<g id="Logo">
	<path class="st1" d="M222,17.4c0-2.4,0-4.8,0-7.2c0-0.5,0.1-0.7,0.6-0.8c4.3-1.4,8.5-2.8,12.8-4.2c0.3-0.1,0.7-0.1,1.1,0
		c4.2,1.4,8.5,2.8,12.7,4.2c0.5,0.2,0.7,0.4,0.7,0.9c0,4.4,0,8.7,0,13.1c0,5.4-2.3,9.8-6,13.6c-1.9,2-4.1,3.6-6.7,4.7
		c-0.9,0.4-1.7,0.3-2.6,0c-7.1-2.8-12.6-10.9-12.6-18.5C222,21.3,222,19.3,222,17.4C222,17.4,222,17.4,222,17.4z M245.1,19
		c0,0,0.1,0,0.1,0c0-1.8,0-3.6,0-5.4c0-0.5-0.1-0.7-0.6-0.9c-2.7-0.9-5.4-1.8-8.1-2.7c-0.3-0.1-0.8-0.1-1.1,0
		c-2.7,0.9-5.4,1.8-8.1,2.7c-0.5,0.2-0.6,0.4-0.6,0.9c0,3.3,0,6.6,0,9.9c0,0.7,0,1.3,0.2,2c1,5.3,4.3,8.9,8.8,11.6
		c0.2,0.1,0.6,0.1,0.8-0.1c1-0.7,2.1-1.4,3-2.2c3-2.6,5.2-5.7,5.6-9.7C245.3,23.1,245.1,21,245.1,19z"/>
	<path class="st1" d="M235.9,33c-2.9-2.3-5.3-4.9-5.6-8.7c-0.2-2.2-0.1-4.5-0.1-6.8c0-2,0-2,2-2.7c1.2-0.4,2.5-1.1,3.8-1.1
		c1.2,0,2.4,0.7,3.7,1.1c2,0.7,2,0.7,2,2.7c0,1.7,0,3.5,0,5.2C241.8,27.3,239.3,30.4,235.9,33z"/>
</g>
</svg>
