<svg xmlns="http://www.w3.org/2000/svg" viewBox="0 0 100 100"><defs><style>.cls-1{fill:#FFFFFF;}</style></defs><title>v2-icons</title><g id="Layer_6" data-name="Layer 6"><path class="cls-1" d="M24.57,46.18a1.16,1.16,0,0,1-1-.56c-1.34-2.18-4-8.27-2.59-10.35,1.05-1.55,3.67-1.16,10.38,1.52A1.17,1.17,0,1,1,30.49,39c-5.27-2.11-7-2.32-7.58-2.26-.13,1.12,1,5,2.66,7.69A1.17,1.17,0,0,1,25.18,46,1.13,1.13,0,0,1,24.57,46.18ZM23,36.54"/><path class="cls-1" d="M72.42,87.05H64a1.18,1.18,0,0,1-1.11-.79,7.3,7.3,0,0,1-.52-2.15c-.06-.4-.11-.84-.17-1.26A7.05,7.05,0,0,1,62,81.79c0-.12,0-.24,0-.35s0-.44-.07-.62h0a24.28,24.28,0,0,1-9.68,0L51,80.52h0a1.06,1.06,0,0,0-.45.23l0,0a2.68,2.68,0,0,0-.6.56A2.71,2.71,0,0,0,49.39,83a1,1,0,0,1,0,.24c0,.23-.09.46-.14.69s-.11.54-.17.8c0,.11,0,.23-.07.35-.1.44-.19.86-.3,1.18a1.18,1.18,0,0,1-1.1.77H39.63a1.19,1.19,0,0,1-1.18-1.19V85.8A15.33,15.33,0,0,0,36,78.47c-.22-.29-.44-.57-.66-.83a1.14,1.14,0,0,1-.24-.41.88.88,0,0,0-.3-.15h0A16.91,16.91,0,0,1,26.43,70c-.23-.34-.47-.71-.74-1.14s-.43-.68-.64-1c-.21-.18-.41-.35-.61-.5A7.11,7.11,0,0,0,21,65.85C18.32,65.52,18,63.06,18,62c0-1.35,0-2.71,0-4,0-1.66,0-3.37,0-5a3.62,3.62,0,0,1,1-2.74,3.8,3.8,0,0,1,2.83-1h.08a5.18,5.18,0,0,0,3.15-1,25.86,25.86,0,0,0,4.32-4.47,27.36,27.36,0,0,1,5-5.11A31.58,31.58,0,0,1,43,34.4c.57-.17,1.15-.34,1.74-.48a1.17,1.17,0,0,1,.56,2.28c-.54.13-1.08.28-1.6.44a29.19,29.19,0,0,0-8,3.9,25.22,25.22,0,0,0-4.59,4.69,28.12,28.12,0,0,1-4.72,4.86,7.51,7.51,0,0,1-4.61,1.44,1.79,1.79,0,0,0-1.19.31,1.49,1.49,0,0,0-.27,1c0,1.71,0,3.43,0,5.1,0,1.32,0,2.68,0,4s.54,1.48.89,1.52a9.5,9.5,0,0,1,4.6,1.88c.3.23.61.49.9.76a1.64,1.64,0,0,1,.21.25c.23.38.47.77.71,1.14s.5.78.72,1.1l0,0a14.57,14.57,0,0,0,7.14,6.18,2.63,2.63,0,0,1,1.67,1.39c.23.27.46.55.67.85a16.81,16.81,0,0,1,2.78,7.6h6l0-.08c0-.13,0-.26.08-.38s.11-.5.16-.76.08-.41.13-.6a5,5,0,0,1,1-3,5.28,5.28,0,0,1,1.09-1,2.81,2.81,0,0,1,2.41-.62l1.09.25a21.82,21.82,0,0,0,8.89,0l.18,0a2.55,2.55,0,0,1,1.58.35,2.09,2.09,0,0,1,.9,1.74c0,.22.06.44.08.66l0,.33a4.35,4.35,0,0,0,.12.75,1.06,1.06,0,0,1,0,.19v.07c.05.43.11.85.16,1.23s.11.71.15.92h6.59l.09-.93a22.4,22.4,0,0,1,.88-5,15.08,15.08,0,0,1,1.72-3.29c.24-.37.47-.73.68-1.09A33.73,33.73,0,0,0,79,57.43a21.08,21.08,0,0,0-.58-5.3,16.78,16.78,0,0,0-1.74-4.59,21,21,0,0,0-3.13-4.32,23.18,23.18,0,0,0-7.36-5.29A29.26,29.26,0,0,0,63,36.72a1.17,1.17,0,1,1,.69-2.24,31.36,31.36,0,0,1,3.47,1.31,25.3,25.3,0,0,1,8.12,5.84,23,23,0,0,1,3.47,4.8,19,19,0,0,1,2,5.24,23.55,23.55,0,0,1,.63,5.77,36.17,36.17,0,0,1-4.53,18.09c-.24.4-.49.79-.73,1.17a13.07,13.07,0,0,0-1.48,2.77A20.23,20.23,0,0,0,73.82,84c0,.47-.09,1-.14,1.42,0,.12,0,.21-.05.31a2.89,2.89,0,0,0,0,.29A1.19,1.19,0,0,1,72.42,87.05Z"/><path class="cls-1" d="M40.85,44.32a1.17,1.17,0,0,1-.67-2.14c.2-.13,4.86-3.28,12.94-3.28a26.64,26.64,0,0,1,13.27,3.21,1.17,1.17,0,0,1-1.24,2,24.19,24.19,0,0,0-12-2.85c-7.36,0-11.44,2.75-11.61,2.86A1.15,1.15,0,0,1,40.85,44.32Z"/><path class="cls-1" d="M37.87,60.9a12.46,12.46,0,0,1-1.35-.07A15.45,15.45,0,0,1,31,59.1c-.72-.4-2.93-1.63-2.9-3.71A2.76,2.76,0,0,1,29.56,53a37.77,37.77,0,0,0,4.7-6.25A2.43,2.43,0,0,1,37.63,46c.25.15,1.9,1,3.23,1.61,3.46,1.7,4.67,2.31,5,2.57a4.36,4.36,0,0,1,1.64,3.57c-.07,2-1.47,3.9-4.15,5.64A10,10,0,0,1,37.87,60.9Zm-1.55-13h0a.13.13,0,0,0-.06.05c0,.06-4,6.26-5.57,7.06a.41.41,0,0,0-.26.37c0,.44.61,1,1.69,1.62a12.62,12.62,0,0,0,2.76,1.1,13.46,13.46,0,0,0,1.92.36,8.19,8.19,0,0,0,5.32-1.09h0c1.38-.9,3-2.28,3.09-3.76A2.05,2.05,0,0,0,44.47,52c-.4-.27-2.95-1.51-4.64-2.34-2.24-1.1-3.18-1.56-3.46-1.74Zm-6.73,5h0Z"/><path class="cls-1" d="M23.09,60.85a1.18,1.18,0,0,1-1.18-1.17V55.14a1.18,1.18,0,0,1,2.35,0v4.54A1.18,1.18,0,0,1,23.09,60.85Z"/><path class="cls-1" d="M48.89,41.3a1.17,1.17,0,0,1-1.17-1.17V28.4H41.15a1.18,1.18,0,0,1,0-2.35h7.74a1.17,1.17,0,0,1,1.17,1.17V40.13A1.17,1.17,0,0,1,48.89,41.3Z"/><path class="cls-1" d="M58.9,41.3a1.17,1.17,0,0,1-1.17-1.17v-14A1.17,1.17,0,0,1,58.9,25H71.18a1.17,1.17,0,1,1,0,2.34H60.07V40.13A1.17,1.17,0,0,1,58.9,41.3Z"/><path class="cls-1" d="M53.9,40.67a1.17,1.17,0,0,1-1.18-1.17V20.42a1.18,1.18,0,0,1,2.35,0V39.5A1.17,1.17,0,0,1,53.9,40.67Z"/><path class="cls-1" d="M37.22,31.58a4.36,4.36,0,1,1,4.35-4.36A4.36,4.36,0,0,1,37.22,31.58Zm0-6.37a2,2,0,1,0,2,2A2,2,0,0,0,37.22,25.21Z"/><path class="cls-1" d="M74.7,30.49a4.36,4.36,0,1,1,4.36-4.36A4.36,4.36,0,0,1,74.7,30.49Zm0-6.37a2,2,0,1,0,2,2A2,2,0,0,0,74.7,24.12Z"/><path class="cls-1" d="M53.9,21.08a4.36,4.36,0,1,1,4.35-4.36A4.36,4.36,0,0,1,53.9,21.08Zm0-6.37a2,2,0,1,0,2,2A2,2,0,0,0,53.9,14.71Z"/></g></svg>