<svg xmlns="http://www.w3.org/2000/svg" viewBox="0 0 100 100"><defs><style>.cls-1{fill:#FFFFFF;}</style></defs><title>v2-icons</title><g id="Peer_to_Contract" data-name="Peer to Contract"><path class="cls-1" d="M34.76,70.05a1.19,1.19,0,0,1-.78-.28,25.9,25.9,0,0,1-9-25.31,1.24,1.24,0,1,1,2.42.5,23.43,23.43,0,0,0,8.1,22.9,1.24,1.24,0,0,1-.78,2.19Z"/><path class="cls-1" d="M50.31,75.59a25.8,25.8,0,0,1-8.09-1.3,1.22,1.22,0,0,1-.78-1.55A1.24,1.24,0,0,1,43,72a23.4,23.4,0,0,0,18.37-1.61,1.23,1.23,0,0,1,1.67.5,1.25,1.25,0,0,1-.5,1.68A25.89,25.89,0,0,1,50.31,75.59Z"/><path class="cls-1" d="M67.76,68.33a1.24,1.24,0,0,1-.87-2.11,23.34,23.34,0,0,0,5.37-8.44A1.25,1.25,0,0,1,73.85,57a1.23,1.23,0,0,1,.73,1.58A25.9,25.9,0,0,1,68.64,68,1.25,1.25,0,0,1,67.76,68.33Z"/><path class="cls-1" d="M74.82,53.11h-.1a1.24,1.24,0,0,1-1.13-1.34c.06-.66.09-1.34.09-2A23.37,23.37,0,0,0,29,40.06a1.23,1.23,0,0,1-1.63.61A1.24,1.24,0,0,1,26.8,39,25.84,25.84,0,0,1,76.15,49.75c0,.75,0,1.5-.1,2.24A1.22,1.22,0,0,1,74.82,53.11Z"/><path class="cls-1" d="M41,66.36a1.23,1.23,0,0,1-1.14-.77,35.49,35.49,0,0,1-1.74-5.72A1.24,1.24,0,0,1,39,58.4a1.23,1.23,0,0,1,1.47.94,33.69,33.69,0,0,0,1.62,5.33,1.23,1.23,0,0,1-.68,1.6A1.12,1.12,0,0,1,41,66.36Z"/><path class="cls-1" d="M50.31,75.35a9,9,0,0,1-6.5-3.17,1.23,1.23,0,1,1,1.8-1.69,6.53,6.53,0,0,0,4.7,2.39c2.28,0,4.57-1.68,6.46-4.72a1.23,1.23,0,0,1,2.1,1.3C56.51,73.26,53.47,75.35,50.31,75.35Z"/><path class="cls-1" d="M60.65,63.57a1.65,1.65,0,0,1-.38,0,1.23,1.23,0,0,1-.8-1.55v0c.29-.94.41-1.33.64-2.32a1.23,1.23,0,1,1,2.41.54c-.25,1.09-.4,1.57-.7,2.52v0A1.22,1.22,0,0,1,60.65,63.57Z"/><path class="cls-1" d="M38.45,46.65h-.11a1.23,1.23,0,0,1-1.12-1.34,36.4,36.4,0,0,1,4.25-14.79c2.4-4.1,5.54-6.36,8.84-6.36,3.15,0,6.07,2,8.44,5.7a34,34,0,0,1,4.43,13.41,1.24,1.24,0,1,1-2.45.32c-1.31-9.82-5.69-17-10.42-17-5.1,0-9.67,8.13-10.63,18.9A1.24,1.24,0,0,1,38.45,46.65Z"/><path class="cls-1" d="M50.31,37.73c-7.15,0-13.77-1.24-18.64-3.49a1.23,1.23,0,1,1,1-2.24c4.49,2.07,10.91,3.26,17.61,3.26S63.43,34.07,67.92,32a1.24,1.24,0,0,1,1.64.61,1.22,1.22,0,0,1-.6,1.63C64.08,36.49,57.46,37.73,50.31,37.73Z"/><path class="cls-1" d="M68.6,66.45a1.3,1.3,0,0,1-.51-.11,77.36,77.36,0,0,0-7.76-2.81A1.24,1.24,0,1,1,61,61.14a77.85,77.85,0,0,1,8.16,3,1.24,1.24,0,0,1-.52,2.36Z"/><path class="cls-1" d="M32.18,66.94a1.23,1.23,0,0,1-.51-2.35,38.8,38.8,0,0,1,10.77-3,1.24,1.24,0,0,1,.34,2.45A36.47,36.47,0,0,0,32.7,66.83,1.19,1.19,0,0,1,32.18,66.94Z"/><path class="cls-1" d="M55.58,51.07H44.71a1.24,1.24,0,0,1,0-2.47H55.58a1.24,1.24,0,0,1,0,2.47Z"/><path class="cls-1" d="M74.84,51.07H67.76a1.24,1.24,0,0,1,0-2.47h7.08a1.24,1.24,0,1,1,0,2.47Z"/><path class="cls-1" d="M32.2,51.07H25.78a1.24,1.24,0,0,1,0-2.47H32.2a1.24,1.24,0,1,1,0,2.47Z"/><path class="cls-1" d="M50.23,53.62A1.24,1.24,0,0,1,49,52.39v-27a1.24,1.24,0,1,1,2.47,0v27A1.23,1.23,0,0,1,50.23,53.62Z"/><path class="cls-1" d="M50.23,75.35A1.24,1.24,0,0,1,49,74.12V66.54a1.24,1.24,0,0,1,2.47,0v7.58A1.23,1.23,0,0,1,50.23,75.35Z"/><path class="cls-1" d="M19.49,31.19a1.23,1.23,0,0,1-1.06-.61c-1.78-3-2.12-5.15-1-6.54,1.69-2.16,6.11-1.42,13.5,2.27a1.24,1.24,0,0,1-1.11,2.21c-7.52-3.76-10.09-3.41-10.44-3-.2.26-.2,1.37,1.21,3.76a1.24,1.24,0,0,1-.43,1.7A1.29,1.29,0,0,1,19.49,31.19Z"/><path class="cls-1" d="M80.29,76.67c-2.49,0-6.21-1.29-11.25-3.87a162.9,162.9,0,0,1-24.2-16c-9.26-7.23-17.5-14.88-22.6-21a1.23,1.23,0,1,1,1.89-1.58c5,6,13.1,13.51,22.23,20.63A159.06,159.06,0,0,0,70.17,70.6a39.52,39.52,0,0,0,8.1,3.31c2.07.51,2.92.26,3.09,0s.21-1.11-.78-3a40,40,0,0,0-5.18-7,1.24,1.24,0,0,1,1.86-1.63c5.82,6.64,7.8,10.95,6,13.19A3.58,3.58,0,0,1,80.29,76.67Z"/><path class="cls-1" d="M40.13,57.67h-.06a128.75,128.75,0,0,1-21-2.47C12.76,53.78,9.83,52,9.83,49.75c0-2.51,3.55-4.38,11.17-5.86a1.24,1.24,0,1,1,.47,2.43C12.84,48,12.3,49.73,12.3,49.75s.43,1.49,7.29,3A126.06,126.06,0,0,0,40.18,55.2a1.25,1.25,0,0,1,1.18,1.3A1.23,1.23,0,0,1,40.13,57.67Z"/><path class="cls-1" d="M46.67,57.91a1.24,1.24,0,0,1,0-2.47c2.68,0,5.42,0,8.13-.14a1.23,1.23,0,0,1,.08,2.46C52.15,57.86,49.38,57.91,46.67,57.91Z"/><path class="cls-1" d="M61.46,57.41a1.24,1.24,0,0,1-.08-2.47c3.16-.21,6.21-.49,9.07-.81a1.23,1.23,0,1,1,.28,2.45c-2.9.33-6,.61-9.19.82Z"/><path class="cls-1" d="M77.42,55.64a1.23,1.23,0,0,1-.2-2.45c9.57-1.6,11-3.21,11.17-3.47-.11-.23-1.15-1.85-9.22-3.42a1.23,1.23,0,1,1,.47-2.42c7.66,1.48,11.23,3.35,11.23,5.87,0,1.7-1.5,3.91-13.24,5.88Z"/><path class="cls-1" d="M16.6,86.78a3.14,3.14,0,0,1-2.33-.86c-1.45-1.45-1.09-4.09,1.12-8.34a91.89,91.89,0,0,1,9-13.22,1.24,1.24,0,0,1,1.94,1.54,87.58,87.58,0,0,0-8.76,12.83c-2,3.78-1.8,5.21-1.57,5.44s2.55.4,8.6-3.38a1.23,1.23,0,0,1,1.31,2.09C21.73,85.5,18.68,86.78,16.6,86.78Z"/><path class="cls-1" d="M80.43,29.82a225.08,225.08,0,0,1-23.3,26.79A231.88,231.88,0,0,1,31.19,79.3a1.23,1.23,0,0,1-.73.24,1.26,1.26,0,0,1-1-.51,1.23,1.23,0,0,1,.28-1.72A228.84,228.84,0,0,0,55.38,54.86a223.42,223.42,0,0,0,23-26.47c7.76-10.89,6.29-12.88,6.27-12.9-.29-.29-2.14-.4-7.16,2.52a1.23,1.23,0,1,1-1.24-2.13c5.29-3.09,8.51-3.77,10.15-2.13,1.21,1.2,1.14,3.31-.21,6.43a56.84,56.84,0,0,1-5.8,9.64"/><path class="cls-1" d="M65.82,26a1.22,1.22,0,0,1-1-.47,1.24,1.24,0,0,1,.2-1.73c2-1.61,4-3.08,5.84-4.37a1.23,1.23,0,1,1,1.42,2c-1.79,1.26-3.72,2.71-5.73,4.29A1.19,1.19,0,0,1,65.82,26Z"/><path class="cls-1" d="M27.92,84.23a4.14,4.14,0,1,1,4.14-4.13A4.13,4.13,0,0,1,27.92,84.23Zm0-5.8a1.67,1.67,0,1,0,1.67,1.67A1.66,1.66,0,0,0,27.92,78.43Z"/><path class="cls-1" d="M74.2,22.94a4.14,4.14,0,1,1,4.13-4.14A4.14,4.14,0,0,1,74.2,22.94Zm0-5.8a1.67,1.67,0,0,0,0,3.33,1.67,1.67,0,1,0,0-3.33Z"/><path class="cls-1" d="M74.2,59.23a4.13,4.13,0,1,1,4.13-4.13A4.13,4.13,0,0,1,74.2,59.23Zm0-5.8a1.67,1.67,0,1,0,1.67,1.67A1.66,1.66,0,0,0,74.2,53.43Z"/><path class="cls-1" d="M21.24,36.63a4.13,4.13,0,1,1,4.13-4.13A4.13,4.13,0,0,1,21.24,36.63Zm0-5.79a1.66,1.66,0,1,0,1.67,1.66A1.66,1.66,0,0,0,21.24,30.84Z"/></g></svg>